<svg width="360" height="289" viewBox="0 0 360 289" fill="none" xmlns="http://www.w3.org/2000/svg">
<path d="M0 16C0 7.16344 7.16344 0 16 0H344C352.837 0 360 7.16344 360 16V289H0V16Z" fill="#FEFCE5"/>
<path d="M0 16C0 7.16344 7.16344 0 16 0H344C352.837 0 360 7.16344 360 16V289H0V16Z" fill="url(#paint0_linear_2025_16918)"/>
<g clip-path="url(#clip0_2025_16918)">
<path d="M278.052 149.196H268.485C265.272 149.196 262.667 151.818 262.667 155.052C262.667 158.287 265.272 160.909 268.485 160.909H278.052C281.265 160.909 283.87 158.287 283.87 155.052C283.87 151.818 281.265 149.196 278.052 149.196Z" fill="url(#paint1_radial_2025_16918)"/>
<path d="M273.322 252C282.853 252 290.58 244.223 290.58 234.63C290.58 225.036 282.853 217.259 273.322 217.259C263.79 217.259 256.063 225.036 256.063 234.63C256.063 244.223 263.79 252 273.322 252Z" fill="url(#paint2_radial_2025_16918)"/>
<path d="M314.176 219.283C303.315 203.584 305.242 183.622 305.242 183.622C301.936 158.663 277.374 157.712 277.374 157.712C275.837 157.528 274.285 157.5 272.743 157.628C271.612 157.504 270.469 157.532 269.346 157.712C269.346 157.712 244.783 158.663 241.478 183.622C241.478 183.622 243.367 203.553 232.506 219.275C232.506 219.275 229.459 221.575 230.145 229.455C230.145 229.455 232.59 233.794 247.617 235.626C247.617 235.626 265.591 238.187 273.36 237.627C281.128 238.187 299.103 235.795 299.103 235.795C315.615 234.461 316.575 228.957 316.575 228.957C317.245 221.115 314.176 219.283 314.176 219.283Z" fill="url(#paint3_radial_2025_16918)"/>
<path d="M307.801 205.999C307.801 205.999 269.978 214.024 239.041 205.999" stroke="#FEDA4D" stroke-width="3.07" stroke-linecap="round" stroke-linejoin="round"/>
<path d="M309.949 212.92C309.949 212.92 269.765 221.452 236.893 212.92" stroke="#FEDA4D" stroke-width="3.07" stroke-linecap="round" stroke-linejoin="round"/>
<path d="M309.324 151.679L309.636 152.661C309.987 153.727 310.662 154.656 311.565 155.316C312.468 155.976 313.555 156.334 314.671 156.34H315.699C316.804 156.365 317.875 156.735 318.762 157.4C319.649 158.064 320.309 158.99 320.65 160.048C320.992 161.107 320.997 162.246 320.667 163.308C320.337 164.37 319.687 165.302 318.807 165.976L317.976 166.581C317.08 167.246 316.413 168.176 316.069 169.242C315.725 170.307 315.721 171.454 316.057 172.522L316.369 173.503C316.688 174.569 316.669 175.708 316.316 176.763C315.963 177.817 315.293 178.735 314.398 179.389C313.504 180.044 312.43 180.402 311.324 180.415C310.218 180.427 309.136 180.093 308.227 179.46L307.397 178.846C306.495 178.185 305.407 177.828 304.29 177.828C303.173 177.828 302.085 178.185 301.182 178.846L300.345 179.46C299.436 180.093 298.354 180.427 297.248 180.415C296.142 180.402 295.068 180.044 294.174 179.389C293.279 178.735 292.609 177.817 292.256 176.763C291.903 175.708 291.884 174.569 292.203 173.503L292.523 172.522C292.862 171.452 292.86 170.302 292.516 169.233C292.171 168.165 291.502 167.232 290.603 166.566L289.773 165.96C288.893 165.287 288.243 164.354 287.912 163.292C287.582 162.23 287.588 161.091 287.929 160.033C288.271 158.974 288.931 158.049 289.818 157.384C290.705 156.72 291.775 156.35 292.881 156.325H293.909C295.025 156.324 296.113 155.968 297.016 155.307C297.919 154.646 298.591 153.714 298.936 152.645L299.255 151.664C299.621 150.613 300.303 149.702 301.206 149.059C302.109 148.415 303.189 148.07 304.295 148.072C305.402 148.073 306.48 148.422 307.382 149.068C308.283 149.714 308.962 150.627 309.324 151.679Z" fill="#12B564"/>
<path d="M309.659 160.571C309.548 160.375 309.385 160.213 309.189 160.102C308.994 159.992 308.772 159.937 308.547 159.943C308.327 159.936 308.109 159.987 307.914 160.09C307.719 160.194 307.554 160.346 307.435 160.533C307.249 160.823 307.151 161.162 307.153 161.507V166.758L302.873 161.07C302.675 160.779 302.433 160.521 302.157 160.303C301.864 160.054 301.489 159.926 301.106 159.943C300.729 159.946 300.368 160.098 300.101 160.365C299.94 160.537 299.817 160.741 299.739 160.964C299.662 161.187 299.632 161.424 299.651 161.66V170.223C299.648 170.563 299.741 170.898 299.918 171.188C300.041 171.392 300.216 171.558 300.425 171.669C300.635 171.779 300.87 171.831 301.106 171.817C301.319 171.801 301.525 171.733 301.706 171.618C301.886 171.503 302.036 171.345 302.142 171.158C302.283 170.899 302.374 170.615 302.408 170.322V164.956L306.765 170.682C306.962 170.93 307.178 171.161 307.412 171.372C307.697 171.648 308.076 171.802 308.471 171.802C308.726 171.785 308.971 171.698 309.181 171.551C309.39 171.403 309.556 171.201 309.659 170.966C309.828 170.585 309.911 170.172 309.903 169.755V161.507C309.906 161.179 309.821 160.856 309.659 160.571Z" fill="white"/>
</g>
<path d="M69.5734 55.09V50.5H66.6034V63.04H69.5734V57.82H73.1734V55.09H69.5734ZM62.2234 56.74C62.2234 53.26 59.1034 50.77 54.4234 50.77C49.7434 50.77 46.5934 53.26 46.5934 56.74C46.5934 60.22 49.7434 62.71 54.4234 62.71C59.1034 62.71 62.2234 60.22 62.2234 56.74ZM49.5334 56.74C49.5334 54.58 51.5434 53.17 54.4234 53.17C57.3034 53.17 59.2834 54.58 59.2834 56.74C59.2834 58.9 57.3034 60.31 54.4234 60.31C51.5434 60.31 49.5334 58.9 49.5334 56.74ZM51.4234 71.23H69.5734V64.45H48.4234V66.79H66.6334V69.01H48.4834V75.79H70.2034V73.45H51.4234V71.23ZM95.5808 65.5H98.5508V50.5H95.5808V65.5ZM75.8108 64.6H85.3808C89.0108 64.6 92.0108 64.15 93.5708 63.46V61C91.9208 61.75 88.9808 62.17 85.5008 62.17H78.7508V59.02H90.9608V51.13H75.7508V53.56H88.0208V56.65H75.8108V64.6ZM76.8308 75.79H98.5508V66.91H76.8308V75.79ZM79.7708 73.36V69.34H95.6108V73.36H79.7708ZM131.856 63.28H134.826V50.5H131.856V54.1H125.676V56.74H131.856V63.28ZM119.256 58.03L126.696 62.77L128.226 60.67L120.486 55.78C121.086 54.28 121.416 52.66 121.416 50.92L118.446 50.74C118.386 55.48 115.566 59.53 110.766 60.4V63.07C114.486 62.56 117.426 60.7 119.256 58.03ZM115.956 73.48V71.32H134.826V64.69H112.956V67H131.886V69.13H113.016V75.79H135.456V73.48H115.956ZM155.134 55.33V57.91H160.114V64.9H163.084V50.5H160.114V55.33H155.134ZM147.994 59.08L155.524 63.91L156.994 61.69L149.104 56.71C149.404 55.75 149.614 54.76 149.674 53.71H156.154V51.16H139.804V53.71H146.704C146.344 57.88 143.704 60.91 139.474 61.48V64.15C143.254 63.79 146.224 61.87 147.994 59.08ZM152.224 65.74C146.014 65.74 141.154 67.18 141.154 70.93C141.154 74.68 146.014 76.12 152.224 76.12C158.434 76.12 163.294 74.68 163.294 70.93C163.294 67.18 158.434 65.74 152.224 65.74ZM152.224 73.69C147.814 73.69 144.304 72.82 144.304 70.93C144.304 69.04 147.814 68.17 152.224 68.17C156.634 68.17 160.144 69.04 160.144 70.93C160.144 72.82 156.634 73.69 152.224 73.69ZM177.601 50.44H174.571V54.55H167.791V57.19H184.411V54.55H177.601V50.44ZM194.011 60.88H190.411V50.5H187.441V76.12H190.411V63.73H194.011V60.88ZM176.101 59.23C171.931 59.23 168.961 62.35 168.961 67.06C168.961 71.77 171.931 74.89 176.101 74.89C180.271 74.89 183.211 71.77 183.211 67.06C183.211 62.35 180.271 59.23 176.101 59.23ZM176.101 72.31C173.701 72.31 171.841 70.33 171.841 67.06C171.841 63.79 173.701 61.81 176.101 61.81C178.471 61.81 180.331 63.79 180.331 67.06C180.331 70.33 178.471 72.31 176.101 72.31ZM216.269 68.32H219.359V51.4H197.039V54.19H216.269V68.32ZM208.079 72.1V60.67H205.019V72.1H195.479V74.89H221.069V72.1H208.079ZM244.324 64.57C251.464 64.57 256.114 61.84 256.114 57.49C256.114 53.14 251.464 50.41 244.324 50.41C237.184 50.41 232.534 53.14 232.534 57.49C232.534 61.84 237.184 64.57 244.324 64.57ZM244.324 54.88C247.984 54.88 250.774 55.78 250.774 57.49C250.774 59.17 247.984 60.1 244.324 60.1C240.664 60.1 237.874 59.17 237.874 57.49C237.874 55.78 240.664 54.88 244.324 54.88ZM257.284 66.1H231.364V70.72H236.794V76.72H241.834V70.72H246.814V76.72H251.854V70.72H257.284V66.1ZM280.772 61.69V59.32C282.962 58.48 284.282 57.16 284.282 55.27C284.282 51.58 279.332 50.08 272.582 50.08C265.832 50.08 260.882 51.58 260.882 55.27C260.882 57.16 262.202 58.48 264.392 59.32V61.69H259.622V65.53H285.542V61.69H280.772ZM272.582 53.86C276.422 53.86 278.882 54.31 278.882 55.27C278.882 56.26 276.422 56.68 272.582 56.68C268.742 56.68 266.282 56.26 266.282 55.27C266.282 54.31 268.742 53.86 272.582 53.86ZM269.402 60.34C270.392 60.43 271.472 60.46 272.582 60.46C273.692 60.46 274.772 60.43 275.762 60.34V61.69H269.402V60.34ZM272.582 66.4C265.682 66.4 260.882 67.72 260.882 71.41C260.882 75.1 265.682 76.42 272.582 76.42C279.482 76.42 284.282 75.1 284.282 71.41C284.282 67.72 279.482 66.4 272.582 66.4ZM272.582 72.64C268.862 72.64 266.282 72.34 266.282 71.41C266.282 70.51 268.862 70.18 272.582 70.18C276.302 70.18 278.882 70.51 278.882 71.41C278.882 72.34 276.302 72.64 272.582 72.64ZM305.159 52.24H298.979V50.05H293.819V52.24H287.639V56.2H305.159V52.24ZM311.939 56.44V50.5H306.869V69.61H311.939V61.36H314.939V56.44H311.939ZM296.399 67.48C300.659 67.48 304.259 65.68 304.259 62.2C304.259 58.72 300.659 56.92 296.399 56.92C292.139 56.92 288.539 58.72 288.539 62.2C288.539 65.68 292.139 67.48 296.399 67.48ZM296.399 60.58C298.229 60.58 299.429 61.3 299.429 62.2C299.429 63.1 298.229 63.82 296.399 63.82C294.569 63.82 293.369 63.1 293.369 62.2C293.369 61.3 294.569 60.58 296.399 60.58ZM294.479 68.23H289.319V76.12H312.299V71.71H294.479V68.23ZM66.7109 94.76V90.5H61.6409V104.36H66.7109V99.68H69.7109V94.76H66.7109ZM58.8509 90.8H43.2209V103.58H58.8509V90.8ZM53.8409 99.41H48.2309V94.97H53.8409V99.41ZM58.4309 109.37H66.7109V105.26H44.0909V109.37H52.7309C51.1409 111.05 47.6609 111.8 43.8209 111.8V116.12C47.9609 116.12 52.1309 115.34 55.0109 113.45L66.4409 116.42L67.6409 112.13L58.1009 110.12C58.2209 109.88 58.3409 109.61 58.4309 109.37ZM95.0583 101.36L96.1083 97.67L86.4783 95.75C86.5683 95.57 86.6583 95.39 86.7183 95.21H95.5083V91.46H86.4483V89.48H81.2883V91.46H72.2283V95.21H81.1383C79.5783 96.5 75.5883 97.4 71.7783 97.46V101.24C76.0983 101.18 80.2083 100.28 83.0583 98.78L95.0583 101.36ZM96.8283 105.83V102.02H70.9083V105.83H81.2883V107.21H72.4083V116.12H95.3283V107.21H86.4483V105.83H96.8283ZM90.3183 112.43H77.4183V110.9H90.3183V112.43ZM116.154 100.34L122.634 104.21L125.064 100.49L118.224 96.59C118.404 96.05 118.494 95.54 118.554 95H123.384V98.78H126.804V104.84H131.874V90.5H126.804V94.46H124.104V90.8H107.784V95H113.424C112.914 97.43 110.724 99.86 107.424 100.04V104.48C111.084 104.39 114.144 102.68 116.154 100.34ZM120.414 105.2C113.874 105.2 108.714 106.64 108.714 110.81C108.714 114.98 113.874 116.42 120.414 116.42C126.954 116.42 132.114 114.98 132.114 110.81C132.114 106.64 126.954 105.2 120.414 105.2ZM120.414 112.43C116.964 112.43 114.174 111.98 114.174 110.81C114.174 109.67 116.964 109.19 120.414 109.19C123.864 109.19 126.654 109.67 126.654 110.81C126.654 111.98 123.864 112.43 120.414 112.43ZM150.771 110.48V106.58H159.741V91.1H154.761V94.37H141.621V91.1H136.641V106.58H145.611V110.48H135.231V115.22H161.151V110.48H150.771ZM141.621 98.84H154.761V102.05H141.621V98.84ZM194.667 95.84V90.5H191.697V104.96H194.667V98.69H198.267V95.84H194.667ZM187.347 90.95H184.437V94.7H175.287V90.95H172.377V103.73H187.347V90.95ZM175.287 101.27V97.13H184.437V101.27H175.287ZM176.217 108.86H194.667V106.37H173.247V115.79H194.937V113.3H176.217V108.86ZM226.524 100.88H222.924V90.5H219.954V116.12H222.924V103.73H226.524V100.88ZM208.194 91.1C203.694 91.1 200.544 94.88 200.544 103.01C200.544 111.14 203.694 114.92 208.194 114.92C212.664 114.92 215.814 111.14 215.814 103.01C215.814 94.88 212.664 91.1 208.194 91.1ZM208.194 112.19C205.524 112.19 203.514 109.52 203.514 103.01C203.514 96.53 205.524 93.83 208.194 93.83C210.834 93.83 212.844 96.53 212.844 103.01C212.844 109.52 210.834 112.19 208.194 112.19ZM242.272 112.1V106.34H251.872V91.25H248.932V95.84H232.612V91.25H229.672V106.34H239.242V112.1H227.992V114.89H253.582V112.1H242.272ZM232.612 98.51H248.932V103.67H232.612V98.51ZM278.059 90.5V116.12H280.879V90.5H278.059ZM271.609 99.26H267.559V102.08H271.609V115.67H274.429V90.65H271.609V99.26ZM264.769 91.25L261.919 91.13C261.889 102.56 260.509 110.27 256.459 111.59V114.59C259.879 113.87 262.129 110.99 263.419 105.86L267.919 114.26L270.409 112.94L264.199 101.66C264.559 98.69 264.769 95.24 264.769 91.25ZM304.217 112.16V105.2C307.127 103.88 308.837 101.6 308.837 98.75C308.837 94.01 304.277 90.95 297.287 90.95C290.297 90.95 285.737 94.01 285.737 98.75C285.737 101.63 287.447 103.88 290.387 105.23V112.16H284.507V114.89H310.097V112.16H304.217ZM288.887 98.75C288.887 95.63 292.247 93.65 297.287 93.65C302.327 93.65 305.717 95.63 305.717 98.75C305.717 101.81 302.327 103.82 297.287 103.82C292.247 103.82 288.887 101.81 288.887 98.75ZM293.357 106.16C294.557 106.4 295.877 106.52 297.287 106.52C298.727 106.52 300.047 106.4 301.247 106.16V112.16H293.357V106.16ZM314.984 115.88C316.184 115.88 317.084 114.95 317.084 113.75C317.084 112.55 316.184 111.62 314.984 111.62C313.784 111.62 312.854 112.55 312.854 113.75C312.854 114.95 313.784 115.88 314.984 115.88Z" fill="#262626"/>
<path d="M45.5022 164.43C45.5022 163.89 45.5862 163.458 45.7542 163.134C45.9342 162.798 46.1742 162.558 46.4742 162.414C46.7862 162.27 47.1282 162.198 47.5002 162.198C47.8722 162.198 48.2082 162.27 48.5082 162.414C48.8082 162.558 49.0482 162.798 49.2282 163.134C49.4082 163.458 49.4982 163.89 49.4982 164.43C49.4982 164.958 49.4082 165.39 49.2282 165.726C49.0482 166.05 48.8082 166.29 48.5082 166.446C48.2082 166.59 47.8722 166.662 47.5002 166.662C47.1282 166.662 46.7862 166.59 46.4742 166.446C46.1742 166.29 45.9342 166.05 45.7542 165.726C45.5862 165.39 45.5022 164.958 45.5022 164.43ZM76.336 157.5H74.554V165.024H76.336V157.5ZM67.408 161.928L72.196 164.628L73.06 163.278L68.182 160.596C68.56 159.732 68.758 158.76 68.758 157.752L66.976 157.644C66.958 160.434 65.14 162.774 62.224 163.296V164.88C64.456 164.592 66.256 163.494 67.408 161.928ZM65.086 171.27V169.938H76.336V165.87H63.286V167.274H74.572V168.606H63.322V172.674H76.714V171.27H65.086ZM91.5085 157.5V172.872H93.2905V157.5H91.5085ZM85.8205 157.95L84.0025 157.878C83.9845 164.34 82.2925 169.668 79.2145 170.154V171.954C81.6445 171.774 83.5165 169.722 84.6505 166.338L88.7365 171.918L90.1765 170.892L85.2085 164.268C85.6045 162.432 85.8025 160.308 85.8205 157.95ZM109.813 161.154V157.5H108.031V168.912H109.813V162.864H111.973V161.154H109.813ZM105.151 159.966V157.878H96.2949V159.444H103.351V160.182C103.351 163.242 100.597 164.88 96.2949 164.898V166.5C101.569 166.5 105.151 164.34 105.151 159.966ZM98.7609 167.832H96.9609V172.674H110.227V171.054H98.7609V167.832ZM131.452 160.65V157.5H129.67V165.852H131.452V162.36H133.612V160.65H131.452ZM127.06 157.878H118.078V165.114H127.06V157.878ZM125.296 163.602H119.842V159.39H125.296V163.602ZM126.286 168.192H131.65V166.698H118.564V168.192H124.414C123.658 170.046 121.12 171.126 118.384 171.126V172.674C120.832 172.674 123.262 171.954 124.81 170.532L131.56 172.872L132.064 171.342L125.8 169.326C125.998 168.984 126.178 168.606 126.286 168.192ZM148.857 163.818L149.271 162.432L142.827 160.722C143.007 160.452 143.151 160.146 143.223 159.822H148.929V158.4H143.079V156.888H141.261V158.4H135.393V159.822H141.369C140.667 161.478 137.643 162.288 135.105 162.36V163.782C137.553 163.728 140.163 163.098 141.765 161.874L148.857 163.818ZM149.847 166.248V164.826H134.493V166.248H141.261V167.85H135.555V172.692H148.767V167.85H143.061V166.248H149.847ZM147.003 171.288H137.337V169.236H147.003V171.288ZM161.149 160.398V161.946H164.137V166.14H165.919V157.5H164.137V160.398H161.149ZM156.865 162.648L161.383 165.546L162.265 164.214L157.531 161.226C157.711 160.65 157.837 160.056 157.873 159.426H161.761V157.896H151.951V159.426H156.091C155.875 161.928 154.291 163.746 151.753 164.088V165.69C154.021 165.474 155.803 164.322 156.865 162.648ZM159.403 166.644C155.677 166.644 152.761 167.508 152.761 169.758C152.761 172.008 155.677 172.872 159.403 172.872C163.129 172.872 166.045 172.008 166.045 169.758C166.045 167.508 163.129 166.644 159.403 166.644ZM159.403 171.414C156.757 171.414 154.651 170.892 154.651 169.758C154.651 168.624 156.757 168.102 159.403 168.102C162.049 168.102 164.155 168.624 164.155 169.758C164.155 170.892 162.049 171.414 159.403 171.414ZM176.97 170.46V167.004H182.73V157.95H180.966V160.704H171.174V157.95H169.41V167.004H175.152V170.46H168.402V172.134H183.756V170.46H176.97ZM171.174 162.306H180.966V165.402H171.174V162.306ZM45.5022 200.43C45.5022 199.89 45.5862 199.458 45.7542 199.134C45.9342 198.798 46.1742 198.558 46.4742 198.414C46.7862 198.27 47.1282 198.198 47.5002 198.198C47.8722 198.198 48.2082 198.27 48.5082 198.414C48.8082 198.558 49.0482 198.798 49.2282 199.134C49.4082 199.458 49.4982 199.89 49.4982 200.43C49.4982 200.958 49.4082 201.39 49.2282 201.726C49.0482 202.05 48.8082 202.29 48.5082 202.446C48.2082 202.59 47.8722 202.662 47.5002 202.662C47.1282 202.662 46.7862 202.59 46.4742 202.446C46.1742 202.29 45.9342 202.05 45.7542 201.726C45.5862 201.39 45.5022 200.958 45.5022 200.43ZM74.68 204.93H76.462V193.5H74.68V196.434H70.972V198.054H74.68V204.93ZM67.084 199.152L71.422 202.68L72.538 201.42L67.768 197.604C68.2 196.434 68.416 195.12 68.416 193.752L66.634 193.644C66.598 197.316 64.906 200.574 62.026 201.096V202.77C64.222 202.482 65.968 201.096 67.084 199.152ZM65.194 207.072V203.778H63.376V208.674H76.786V207.072H65.194ZM84.2005 199.602L88.6285 202.446L89.4925 201.096L84.8665 198.162C85.0465 197.658 85.1545 197.136 85.2085 196.578H89.2045V195.066H85.1905V193.23H83.3905V195.066H79.3225V196.578H83.3905C83.1385 198.99 81.5725 200.646 79.1605 201.006V202.572C81.3565 202.338 83.1385 201.24 84.2005 199.602ZM95.0185 197.136H92.8585V193.5H91.0765V202.932H92.8585V198.846H95.0185V197.136ZM79.8625 205.308H91.0585V208.872H92.8585V203.778H79.8625V205.308ZM103.405 196.794L110.137 200.07L110.839 198.72L104.305 195.57C104.701 194.904 104.971 194.184 105.115 193.428L103.333 193.14C102.739 196.182 99.4269 198.306 96.4569 198.414V199.98C99.0489 199.926 101.713 198.72 103.405 196.794ZM95.9169 201.348V202.86H102.667V205.542H104.467V202.86H111.271V201.348H95.9169ZM98.7789 204.318H96.9609V208.692H110.461V207.162H98.7789V204.318ZM130.102 208.872H131.902V193.5H130.102V208.872ZM122.848 208.152C125.566 208.152 127.492 205.884 127.492 201.006C127.492 196.128 125.566 193.86 122.848 193.86C120.112 193.86 118.186 196.128 118.186 201.006C118.186 205.884 120.112 208.152 122.848 208.152ZM122.848 206.514C121.21 206.514 119.968 204.912 119.968 201.006C119.968 197.118 121.21 195.498 122.848 195.498C124.45 195.498 125.71 197.118 125.71 201.006C125.71 204.912 124.45 206.514 122.848 206.514ZM149.271 193.5H147.579V205.038H149.271V193.5ZM141.621 198.936H143.871V204.768H145.545V193.59H143.871V197.28H141.621V193.77H139.983V196.668H136.617V193.77H134.961V202.662H141.621V198.936ZM136.617 201.204V198.108H139.983V201.204H136.617ZM137.751 207.054V204.066H135.933V208.674H149.649V207.054H137.751ZM166.027 202.284H154.255V199.746H165.595V198.18H154.255V195.66H165.793V194.058H152.473V203.886H166.027V202.284ZM151.447 206.496V208.134H166.801V206.496H151.447ZM45.5022 236.43C45.5022 235.89 45.5862 235.458 45.7542 235.134C45.9342 234.798 46.1742 234.558 46.4742 234.414C46.7862 234.27 47.1282 234.198 47.5002 234.198C47.8722 234.198 48.2082 234.27 48.5082 234.414C48.8082 234.558 49.0482 234.798 49.2282 235.134C49.4082 235.458 49.4982 235.89 49.4982 236.43C49.4982 236.958 49.4082 237.39 49.2282 237.726C49.0482 238.05 48.8082 238.29 48.5082 238.446C48.2082 238.59 47.8722 238.662 47.5002 238.662C47.1282 238.662 46.7862 238.59 46.4742 238.446C46.1742 238.29 45.9342 238.05 45.7542 237.726C45.5862 237.39 45.5022 236.958 45.5022 236.43ZM75.076 229.5V235.692H72.574V229.59H70.882V244.602H72.574V237.384H75.076V244.872H76.768V229.5H75.076ZM62.458 243.954H69.046V230.058H62.458V243.954ZM64.15 231.678H67.372V242.334H64.15V231.678ZM93.2905 235.332L93.6865 234.018L87.2245 232.38C87.3685 232.146 87.4765 231.894 87.5485 231.624H93.3805V230.292H87.5305V228.888H85.7125V230.292H79.8445V231.624H85.6765C84.9925 233.19 82.0225 233.892 79.5565 233.964V235.314C81.9865 235.26 84.6505 234.666 86.2165 233.478L93.2905 235.332ZM94.2985 237.6V236.232H78.9445V237.6H85.7125V238.896H79.9705V240.192H91.4905V241.164H80.0065V244.692H93.5065V243.396H81.7525V242.406H93.2365V238.896H87.5125V237.6H94.2985ZM114.498 232.434V229.5H112.716V237.996H114.498V234.126H116.658V232.434H114.498ZM105.822 234.324L110.358 237.33L111.276 236.016L106.506 232.92C106.866 231.948 107.064 230.886 107.064 229.752L105.282 229.644C105.246 232.884 103.536 235.548 100.62 236.07V237.69C102.906 237.384 104.706 236.124 105.822 234.324ZM108.144 238.5C104.472 238.5 101.556 239.382 101.556 241.686C101.556 243.99 104.472 244.872 108.144 244.872C111.834 244.872 114.732 243.99 114.732 241.686C114.732 239.382 111.834 238.5 108.144 238.5ZM108.144 243.396C105.534 243.396 103.464 242.874 103.464 241.686C103.464 240.516 105.534 239.976 108.144 239.976C110.772 239.976 112.824 240.516 112.824 241.686C112.824 242.874 110.772 243.396 108.144 243.396ZM125.116 232.416L131.812 235.296L132.442 233.946L126.052 231.228C126.376 230.688 126.628 230.076 126.754 229.446L124.972 229.14C124.378 231.84 121.066 233.658 118.096 233.766V235.26C120.724 235.206 123.424 234.144 125.116 232.416ZM117.538 236.538V237.978H132.892V236.538H117.538ZM125.206 239.328C121.534 239.328 118.456 239.994 118.456 242.1C118.456 244.206 121.534 244.908 125.206 244.908C128.878 244.908 131.956 244.206 131.956 242.1C131.956 239.994 128.878 239.328 125.206 239.328ZM125.206 243.504C122.722 243.504 120.346 243.162 120.346 242.1C120.346 241.056 122.722 240.732 125.206 240.732C127.69 240.732 130.084 241.056 130.084 242.1C130.084 243.162 127.69 243.504 125.206 243.504ZM151.742 229.5V244.872H153.524V229.5H151.742ZM147.008 235.242H141.824V229.95H140.06V243.954H148.772V229.95H147.008V235.242ZM141.824 242.316V236.88H147.008V242.316H141.824ZM168.822 229.5V232.632H165.744V229.77H163.998V231.894H158.508V229.77H156.762V237.186H165.744V234.306H168.822V237.636H170.604V229.5H168.822ZM158.508 235.728V233.316H163.998V235.728H158.508ZM168.84 240.012H159.282V238.482H157.518V244.674H170.604V238.482H168.84V240.012ZM159.282 243.234V241.434H168.84V243.234H159.282Z" fill="#262626"/>
<defs>
<linearGradient id="paint0_linear_2025_16918" x1="93" y1="293.114" x2="93" y2="241.69" gradientUnits="userSpaceOnUse">
<stop stop-color="white"/>
<stop offset="1" stop-color="white" stop-opacity="0"/>
</linearGradient>
<radialGradient id="paint1_radial_2025_16918" cx="0" cy="0" r="1" gradientUnits="userSpaceOnUse" gradientTransform="translate(271.227 148.889) scale(23.3136 23.4646)">
<stop offset="0.05" stop-color="#FEE649"/>
<stop offset="0.72" stop-color="#EE9726"/>
</radialGradient>
<radialGradient id="paint2_radial_2025_16918" cx="0" cy="0" r="1" gradientUnits="userSpaceOnUse" gradientTransform="translate(266.779 248.78) scale(24.6998 24.8597)">
<stop offset="0.36" stop-color="#E3A736"/>
<stop offset="1" stop-color="#BA8217"/>
</radialGradient>
<radialGradient id="paint3_radial_2025_16918" cx="0" cy="0" r="1" gradientUnits="userSpaceOnUse" gradientTransform="translate(255.141 195.688) scale(111.435 112.156)">
<stop offset="0.05" stop-color="#FEE649"/>
<stop offset="0.52" stop-color="#E0B528"/>
<stop offset="0.7" stop-color="#E8B529"/>
<stop offset="0.96" stop-color="#FCB62A"/>
</radialGradient>
<clipPath id="clip0_2025_16918">
<rect width="91" height="104" fill="white" transform="translate(230 148)"/>
</clipPath>
</defs>
</svg>
