<svg width="24" height="24" viewBox="0 0 24 24" fill="none" xmlns="http://www.w3.org/2000/svg">
<path d="M10.6191 15.0977C10.625 14.377 10.6953 13.7939 10.8301 13.3486C10.9648 12.9033 11.1523 12.5459 11.3926 12.2764C11.6387 12.0068 11.9668 11.7461 12.377 11.4941C12.793 11.2246 13.1182 10.9346 13.3525 10.624C13.5869 10.3135 13.7012 9.95312 13.6953 9.54297C13.6953 9.2207 13.6191 8.93945 13.4668 8.69922C13.3203 8.45312 13.1152 8.2627 12.8516 8.12793C12.5879 7.99316 12.2949 7.92578 11.9727 7.92578C11.6738 7.92578 11.3926 7.99023 11.1289 8.11914C10.8652 8.24805 10.6484 8.44434 10.4785 8.70801C10.3086 8.97168 10.2148 9.29102 10.1973 9.66602H8C8.01758 8.9043 8.20508 8.25684 8.5625 7.72363C8.91992 7.18457 9.39453 6.78027 9.98633 6.51074C10.584 6.23535 11.252 6.09766 11.9902 6.09766C12.7754 6.09766 13.4697 6.23828 14.0732 6.51953C14.6826 6.79492 15.1543 7.19043 15.4883 7.70605C15.8281 8.22168 15.998 8.82227 15.998 9.50781C15.9922 10.1934 15.8281 10.7822 15.5059 11.2744C15.1895 11.7666 14.7324 12.1914 14.1348 12.5488C13.7832 12.7656 13.502 12.9854 13.291 13.208C13.0859 13.4307 12.9336 13.6914 12.834 13.9902C12.7344 14.2891 12.6816 14.6582 12.6758 15.0977V15.2559H10.6191V15.0977ZM10.3379 17.7695C10.3379 17.5293 10.3994 17.3066 10.5225 17.1016C10.6455 16.8906 10.8125 16.7236 11.0234 16.6006C11.2344 16.4775 11.4629 16.416 11.709 16.416C11.9492 16.416 12.1719 16.4775 12.377 16.6006C12.5879 16.7236 12.7549 16.8906 12.8779 17.1016C13.001 17.3066 13.0625 17.5293 13.0625 17.7695C13.0625 18.0156 13.001 18.2441 12.8779 18.4551C12.7549 18.666 12.5879 18.833 12.377 18.9561C12.1719 19.0791 11.9492 19.1406 11.709 19.1406C11.4629 19.1406 11.2344 19.0791 11.0234 18.9561C10.8125 18.833 10.6455 18.666 10.5225 18.4551C10.3994 18.2441 10.3379 18.0156 10.3379 17.7695Z" fill="#999999"/>
<path fill-rule="evenodd" clip-rule="evenodd" d="M12 22C17.5228 22 22 17.5228 22 12C22 6.47715 17.5228 2 12 2C6.47715 2 2 6.47715 2 12C2 17.5228 6.47715 22 12 22ZM12 24C18.6274 24 24 18.6274 24 12C24 5.37258 18.6274 0 12 0C5.37258 0 0 5.37258 0 12C0 18.6274 5.37258 24 12 24Z" fill="#999999"/>
</svg>
