<svg width="44" height="44" viewBox="0 0 44 44" fill="none" xmlns="http://www.w3.org/2000/svg">
<circle cx="22" cy="22" r="22" fill="#F0F2F5"/>
<rect width="29.3333" height="29.3333" transform="translate(7.33337 7.33337)" fill="#F0F2F5"/>
<path d="M13.2611 23.1H20.9V30.7389C20.9 31.3439 21.395 31.8389 22 31.8389C22.605 31.8389 23.1 31.3439 23.1 30.7389V23.1H30.7389C31.3439 23.1 31.8389 22.605 31.8389 22C31.8389 21.395 31.3439 20.9 30.7389 20.9H23.1V13.2611C23.1 12.6561 22.605 12.1611 22 12.1611C21.395 12.1611 20.9 12.6561 20.9 13.2611V20.9H13.2611C12.6561 20.9 12.1611 21.395 12.1611 22C12.1611 22.605 12.6561 23.1 13.2611 23.1Z" fill="#C3C5C9"/>
</svg>
