<svg xmlns="http://www.w3.org/2000/svg" viewBox="0 0 24 24">
<path d="M22.15 17.94C22.65 17.02 22.9 16.01 22.9 15C22.9 11.76 20.32 9.03001 16.86 8.30001C16.46 4.82001 13.09 2.10001 8.99998 2.10001C4.63998 2.10001 1.09998 5.20001 1.09998 9.00001C1.09998 10.02 1.35998 11.03 1.85998 11.94L1.19998 14.3C1.07998 14.71 1.19998 15.16 1.49998 15.46C1.79998 15.77 2.23998 15.89 2.65998 15.78L5.33998 15.1C5.91998 15.37 6.52998 15.54 7.14998 15.68C7.53998 19.17 10.92 21.9 15.01 21.9C16.29 21.9 17.55 21.63 18.68 21.1L21.36 21.78C21.77 21.89 22.22 21.76 22.52 21.46C22.82 21.15 22.93 20.71 22.82 20.3L22.16 17.94H22.15ZM5.19998 13.28L3.20998 13.79L3.68998 12.07C3.75998 11.83 3.71998 11.57 3.58998 11.35C3.12998 10.62 2.89998 9.83001 2.89998 9.00001C2.89998 6.19001 5.63998 3.90001 8.99998 3.90001C12 3.90001 14.49 5.72001 15 8.10001C11.09 8.10001 7.84998 10.6 7.21998 13.86C6.73998 13.74 6.26998 13.58 5.82998 13.35C5.62998 13.25 5.40998 13.23 5.19998 13.28V13.28ZM20.41 17.35C20.28 17.56 20.24 17.83 20.31 18.07L20.79 19.79L18.8 19.28C18.59 19.23 18.36 19.25 18.17 19.35C17.21 19.84 16.11 20.1 15 20.1C11.68 20.1 8.97998 17.87 8.90998 15.12C8.90998 15.1 8.92998 15.08 8.92998 15.05C8.92998 14.97 8.92998 14.9 8.90998 14.83C9.01998 12.1 11.71 9.90001 15 9.90001C18.29 9.90001 21.1 12.19 21.1 15C21.1 15.83 20.87 16.61 20.41 17.35V17.35Z" />
</svg>
