<svg width="40" height="40" viewBox="0 0 40 40" fill="none" xmlns="http://www.w3.org/2000/svg">
<rect width="40" height="40" rx="10" fill="#EDEFF2"/>
<path fill-rule="evenodd" clip-rule="evenodd" d="M25.6 12.1001H14.4C12.58 12.1001 11.1 13.5801 11.1 15.4001V28.0001C11.1 28.3201 11.27 28.6201 11.56 28.7801C11.7 28.8601 11.85 28.9001 12 28.9001C12.15 28.9001 12.32 28.8601 12.46 28.7701L17.25 25.9001H25.6C27.42 25.9001 28.9 24.4201 28.9 22.6001V15.4001C28.9 13.5801 27.42 12.1001 25.6 12.1001ZM16 18.0001C15.45 18.0001 15 18.4501 15 19.0001C15 19.5501 15.45 20.0001 16 20.0001C16.55 20.0001 17 19.5501 17 19.0001C17 18.4501 16.55 18.0001 16 18.0001ZM20 18.0001C19.45 18.0001 19 18.4501 19 19.0001C19 19.5501 19.45 20.0001 20 20.0001C20.55 20.0001 21 19.5501 21 19.0001C21 18.4501 20.55 18.0001 20 18.0001ZM24 18.0001C23.45 18.0001 23 18.4501 23 19.0001C23 19.5501 23.45 20.0001 24 20.0001C24.55 20.0001 25 19.5501 25 19.0001C25 18.4501 24.55 18.0001 24 18.0001Z" fill="#8B8D94"/>
</svg>
