<svg width="24" height="24" viewBox="0 0 24 24" fill="none" xmlns="http://www.w3.org/2000/svg">
<path fill-rule="evenodd" clip-rule="evenodd" d="M21 2.4H3C2.66863 2.4 2.4 2.66863 2.4 3V21C2.4 21.3314 2.66863 21.6 3 21.6H21C21.3314 21.6 21.6 21.3314 21.6 21V3C21.6 2.66863 21.3314 2.4 21 2.4ZM3 1C1.89543 1 1 1.89543 1 3V21C1 22.1046 1.89543 23 3 23H21C22.1046 23 23 22.1046 23 21V3C23 1.89543 22.1046 1 21 1H3Z" fill="#B2B2B2"/>
<path fill-rule="evenodd" clip-rule="evenodd" d="M17.6783 8.2652C18.0841 8.63981 18.1094 9.27246 17.7348 9.67829L11.7348 16.1783C11.5502 16.3783 11.2921 16.4944 11.02 16.4998C10.7479 16.5052 10.4853 16.3996 10.2929 16.2071L6.29289 12.2071C5.90237 11.8166 5.90237 11.1834 6.29289 10.7929C6.68342 10.4024 7.31658 10.4024 7.70711 10.7929L10.9712 14.0569L16.2652 8.32172C16.6398 7.9159 17.2725 7.8906 17.6783 8.2652Z" fill="#E5E5E5"/>
</svg>
