<svg width="20" height="20" viewBox="0 0 20 20" fill="none" xmlns="http://www.w3.org/2000/svg">
<path fill-rule="evenodd" clip-rule="evenodd" d="M10 18C14.4183 18 18 14.4183 18 10C18 5.58172 14.4183 2 10 2C5.58172 2 2 5.58172 2 10C2 14.4183 5.58172 18 10 18ZM5.99497 9.58503C5.72161 9.85839 5.72161 10.3016 5.99497 10.575L8.32843 12.9084L8.46985 13.0499C8.74322 13.3232 9.18643 13.3232 9.4598 13.0498L14.4803 8.02939C14.7536 7.75602 14.7536 7.31281 14.4803 7.03944C14.2069 6.76608 13.7637 6.76608 13.4903 7.03944L8.96482 11.5649L6.98492 9.58503C6.71156 9.31166 6.26834 9.31166 5.99497 9.58503Z" fill="#0BB25F"/>
</svg>
