<svg height="24"
     width="24"
     fill="none"
     viewBox="0 0 24 24"
     xmlns="http://www.w3.org/2000/svg">
      <path d="M9.43807 13.8263H7.93407L3.65978 6.47998C2.57218 8.11469 1.99171 10.0342 1.99121 11.9977C1.99116 14.544 2.9627 16.9945 4.70761 18.849C6.45252 20.7035 8.83929 21.8223 11.3809 21.9771L16.1124 13.8263H9.43807Z"
            fill="#54B947" />
      <path d="M9.43747 13.8263L12.6375 7.54057H20.9438C20.1155 5.87633 18.8394 4.47612 17.259 3.49734C15.6785 2.51856 13.8564 2.00002 11.9975 2C10.3456 1.99942 8.71938 2.40832 7.26425 3.19013C5.80912 3.97194 4.57049 5.10227 3.65918 6.48L7.93347 13.8263H9.43747Z"
            fill="#EE362F" />
      <path d="M12.6287 7.54053L9.42871 13.8262H16.103L11.3807 21.9771C11.5864 21.9771 11.7876 21.9771 11.9979 21.9771C14.6459 21.9759 17.1854 20.9247 19.0595 19.054C20.9337 17.1832 21.9895 14.6457 21.9956 11.9977C21.9968 10.4504 21.6368 8.92413 20.9441 7.54053H12.6287Z"
            fill="#FEC20E" />
      <path d="M16 12C16 14.2091 14.2091 16 12 16C9.79086 16 8 14.2091 8 12C8 9.79086 9.79086 8 12 8C14.2091 8 16 9.79086 16 12Z"
            fill="#3291CF" />
      <path fillRule="evenodd"
            clipRule="evenodd"
            d="M17 12C17 14.7614 14.7614 17 12 17C9.23858 17 7 14.7614 7 12C7 9.23858 9.23858 7 12 7C14.7614 7 17 9.23858 17 12ZM12 16C14.2091 16 16 14.2091 16 12C16 9.79086 14.2091 8 12 8C9.79086 8 8 9.79086 8 12C8 14.2091 9.79086 16 12 16Z"
            fill="white" />
</svg>
