<svg width="16" height="16" viewBox="0 0 16 16" fill="none" xmlns="http://www.w3.org/2000/svg">
<path d="M7.79104 0.0824014C7.90869 -0.0274672 8.09132 -0.0274671 8.20896 0.0824016L8.9682 0.791478C9.05953 0.876772 9.19353 0.897996 9.30675 0.845098L10.2479 0.405345C10.3938 0.337207 10.5675 0.393643 10.6454 0.534488L11.1484 1.44348C11.2089 1.55282 11.3298 1.61441 11.4538 1.59909L12.4848 1.47171C12.6446 1.45197 12.7923 1.55932 12.8229 1.71735L13.0204 2.73728C13.0441 2.85996 13.14 2.9559 13.2627 2.97965L14.2826 3.1771C14.4407 3.2077 14.548 3.35545 14.5283 3.5152L14.4009 4.54623C14.3856 4.67025 14.4472 4.79113 14.5565 4.85163L15.4655 5.3546C15.6064 5.43253 15.6628 5.60622 15.5947 5.75206L15.1549 6.69326C15.102 6.80647 15.1232 6.94047 15.2085 7.0318L15.9176 7.79104C16.0275 7.90869 16.0275 8.09132 15.9176 8.20896L15.2085 8.9682C15.1232 9.05953 15.102 9.19353 15.1549 9.30675L15.5947 10.2479C15.6628 10.3938 15.6064 10.5675 15.4655 10.6454L14.5565 11.1484C14.4472 11.2089 14.3856 11.3298 14.4009 11.4538L14.5283 12.4848C14.548 12.6446 14.4407 12.7923 14.2826 12.8229L13.2627 13.0204C13.14 13.0441 13.0441 13.14 13.0204 13.2627L12.8229 14.2826C12.7923 14.4407 12.6446 14.548 12.4848 14.5283L11.4538 14.4009C11.3298 14.3856 11.2089 14.4472 11.1484 14.5565L10.6454 15.4655C10.5675 15.6064 10.3938 15.6628 10.2479 15.5947L9.30675 15.1549C9.19353 15.102 9.05953 15.1232 8.9682 15.2085L8.20896 15.9176C8.09132 16.0275 7.90868 16.0275 7.79104 15.9176L7.0318 15.2085C6.94047 15.1232 6.80647 15.102 6.69326 15.1549L5.75206 15.5947C5.60622 15.6628 5.43253 15.6064 5.3546 15.4655L4.85163 14.5565C4.79113 14.4472 4.67025 14.3856 4.54623 14.4009L3.5152 14.5283C3.35545 14.548 3.2077 14.4407 3.1771 14.2826L2.97965 13.2627C2.9559 13.14 2.85996 13.0441 2.73728 13.0204L1.71735 12.8229C1.55932 12.7923 1.45197 12.6446 1.47171 12.4848L1.59909 11.4538C1.61441 11.3298 1.55282 11.2089 1.44348 11.1484L0.534487 10.6454C0.393643 10.5675 0.337207 10.3938 0.405345 10.2479L0.845098 9.30675C0.897996 9.19353 0.876772 9.05953 0.791478 8.9682L0.0824014 8.20896C-0.0274672 8.09132 -0.0274671 7.90868 0.0824016 7.79104L0.791478 7.0318C0.876772 6.94047 0.897996 6.80647 0.845098 6.69326L0.405345 5.75206C0.337207 5.60622 0.393643 5.43253 0.534488 5.3546L1.44348 4.85163C1.55282 4.79113 1.61441 4.67025 1.59909 4.54623L1.47171 3.5152C1.45197 3.35545 1.55932 3.2077 1.71735 3.1771L2.73728 2.97965C2.85996 2.9559 2.9559 2.85996 2.97965 2.73728L3.1771 1.71735C3.2077 1.55932 3.35545 1.45197 3.5152 1.47171L4.54623 1.59909C4.67025 1.61441 4.79113 1.55282 4.85163 1.44348L5.3546 0.534488C5.43253 0.393643 5.60622 0.337207 5.75206 0.405345L6.69326 0.845098C6.80647 0.897996 6.94047 0.876772 7.0318 0.791478L7.79104 0.0824014Z" fill="#12B564"/>
<path fill-rule="evenodd" clip-rule="evenodd" d="M11.7296 5.54945C11.9785 5.76824 12.0029 6.14736 11.7841 6.39623L7.23088 11.5755L4.21616 8.14623C3.99737 7.89736 4.02175 7.51824 4.27063 7.29945C4.5195 7.08066 4.89862 7.10505 5.1174 7.35392L7.23088 9.75801L10.8828 5.60392C11.1016 5.35505 11.4807 5.33066 11.7296 5.54945Z" fill="white"/>
</svg>
