<svg xmlns="http://www.w3.org/2000/svg" viewBox="0 0 24 24">
<path d="M13.27 12L19.2158 6.05422C19.5658 5.70422 19.5658 5.13422 19.2158 4.78422C18.8658 4.43422 18.2958 4.43422 17.9458 4.78422L12 10.73L6.05423 4.77422C5.70423 4.42422 5.13423 4.42422 4.78423 4.77422C4.43423 5.12422 4.43423 5.69422 4.78423 6.04422L10.73 11.99L4.78423 17.9358C4.43423 18.2858 4.43423 18.8558 4.78423 19.2058C4.96423 19.3858 5.19423 19.4658 5.42423 19.4658C5.65423 19.4658 5.88423 19.3758 6.06423 19.2058L12.01 13.26L17.9558 19.2058C18.1358 19.3858 18.3658 19.4658 18.5958 19.4658C18.8258 19.4658 19.0558 19.3758 19.2358 19.2058C19.5858 18.8558 19.5858 18.2858 19.2358 17.9358L13.29 11.99L13.27 12Z" />
</svg>
