<svg width="32" height="32" viewBox="0 0 32 32" fill="none" xmlns="http://www.w3.org/2000/svg">
<path d="M29.5335 23.92C30.2001 22.6934 30.5335 21.3467 30.5335 20C30.5335 15.68 27.0935 12.04 22.4801 11.0667C21.9468 6.42672 17.4535 2.80005 12.0001 2.80005C6.1868 2.80005 1.4668 6.93338 1.4668 12C1.4668 13.36 1.81346 14.7067 2.48013 15.92L1.60013 19.0667C1.44013 19.6134 1.60013 20.2134 2.00013 20.6134C2.40013 21.0267 2.9868 21.1867 3.5468 21.0401L7.12013 20.1334C7.89346 20.4934 8.7068 20.72 9.53346 20.9067C10.0535 25.56 14.5601 29.2 20.0135 29.2C21.7201 29.2 23.4001 28.84 24.9068 28.1334L28.4801 29.0401C29.0268 29.1867 29.6268 29.0134 30.0268 28.6134C30.4268 28.2 30.5735 27.6134 30.4268 27.0667L29.5468 23.92H29.5335ZM6.93346 17.7067L4.28013 18.3867L4.92013 16.0934C5.01346 15.7734 4.96013 15.4267 4.7868 15.1334C4.17346 14.16 3.8668 13.1067 3.8668 12C3.8668 8.25338 7.52013 5.20005 12.0001 5.20005C16.0001 5.20005 19.3201 7.62672 20.0001 10.8C14.7868 10.8 10.4668 14.1334 9.6268 18.48C8.9868 18.32 8.36013 18.1067 7.77346 17.8C7.5068 17.6667 7.21346 17.64 6.93346 17.7067ZM27.2135 23.1334C27.0401 23.4134 26.9868 23.7734 27.0801 24.0934L27.7201 26.3867L25.0668 25.7067C24.7868 25.64 24.4801 25.6667 24.2268 25.8C22.9468 26.4534 21.4801 26.8 20.0001 26.8C15.5735 26.8 11.9735 23.8267 11.8801 20.16C11.8801 20.1334 11.9068 20.1067 11.9068 20.0667C11.9068 19.9601 11.9068 19.8667 11.8801 19.7734C12.0268 16.1334 15.6135 13.2 20.0001 13.2C24.3868 13.2 28.1335 16.2534 28.1335 20C28.1335 21.1067 27.8268 22.1467 27.2135 23.1334Z" fill="#8B8D94"/>
</svg>
