<svg width="20" height="14" viewBox="0 0 20 14" fill="none" xmlns="http://www.w3.org/2000/svg">
<path d="M19.0302 1.635H0.96984C0.437611 1.635 0 1.27 0 0.815C0 0.36 0.431697 0 0.96984 0H19.0302C19.5624 0 20 0.365 20 0.82C20 1.275 19.5683 1.64 19.0302 1.64V1.635Z" fill="#8B8D94"/>
<path d="M19.0302 7.635H0.96984C0.437611 7.635 0 7.27 0 6.815C0 6.36 0.431697 5.995 0.96984 5.995H19.0302C19.5624 5.995 20 6.36 20 6.815C20 7.27 19.5683 7.635 19.0302 7.635Z" fill="#8B8D94"/>
<path d="M19.0302 13.635H0.96984C0.437611 13.635 0 13.27 0 12.815C0 12.36 0.431697 11.995 0.96984 11.995H19.0302C19.5624 11.995 20 12.36 20 12.815C20 13.27 19.5683 13.635 19.0302 13.635Z" fill="#8B8D94"/>
</svg>
