<svg width="20"
     height="20"
     viewBox="0 0 20 20"
     fill="none"
     xmlns="http://www.w3.org/2000/svg">
  <path d="M10.0001 1.66699C5.40008 1.66699 1.66675 5.40033 1.66675 10.0003C1.66675 14.6003 5.40008 18.3337 10.0001 18.3337C14.6001 18.3337 18.3334 14.6003 18.3334 10.0003C18.3334 5.40033 14.6001 1.66699 10.0001 1.66699ZM9.16675 6.66699C9.16675 6.20866 9.54175 5.83366 10.0001 5.83366C10.4584 5.83366 10.8334 6.20866 10.8334 6.66699V10.8337C10.8334 11.292 10.4584 11.667 10.0001 11.667C9.54175 11.667 9.16675 11.292 9.16675 10.8337V6.66699ZM10.0084 14.217C9.51675 14.217 9.11675 13.817 9.11675 13.3253C9.11675 12.8503 9.51675 12.4503 10.0084 12.4503C10.4834 12.4503 10.8834 12.8503 10.8834 13.3253C10.8834 13.8003 10.4751 14.217 10.0084 14.217Z"
        fill="#ED394B" />
</svg>