<svg width="24"
     height="24"
     viewBox="0 0 24 24"
     fill="none"
     xmlns="http://www.w3.org/2000/svg">
  <path fillRule="evenodd"
        clipRule="evenodd"
        d="M19.59 6.635H4.32C3.87 6.635 3.5 6.27 3.5 5.815C3.5 5.36 3.865 5 4.32 5H19.59C20.04 5 20.41 5.365 20.41 5.82C20.41 6.275 20.045 6.64 19.59 6.64V6.635ZM19.59 12.635H4.32C3.87 12.635 3.5 12.27 3.5 11.815C3.5 11.36 3.865 10.995 4.32 10.995H19.59C20.04 10.995 20.41 11.36 20.41 11.815C20.41 12.27 20.045 12.635 19.59 12.635ZM4.32 18.635H19.59C20.045 18.635 20.41 18.27 20.41 17.815C20.41 17.36 20.04 16.995 19.59 16.995H4.32C3.865 16.995 3.5 17.36 3.5 17.815C3.5 18.27 3.87 18.635 4.32 18.635Z"
        fill="#8B8D94" />
</svg>
