<svg width="24"
     height="24"
     viewBox="0 0 24 24"
     fill="none"
     xmlns="http://www.w3.org/2000/svg">
  <path fillRule="evenodd"
        clipRule="evenodd"
        d="M3.27271 5.43173C3.27271 4.82924 3.76112 4.34082 4.36361 4.34082H19.6363C20.2388 4.34082 20.7273 4.82924 20.7273 5.43173C20.7273 6.03422 20.2388 6.52264 19.6363 6.52264H4.36361C3.76112 6.52264 3.27271 6.03422 3.27271 5.43173ZM3.27271 11.9771C3.27271 11.3746 3.76112 10.8862 4.36361 10.8862H19.6363C20.2388 10.8862 20.7273 11.3746 20.7273 11.9771C20.7273 12.5796 20.2388 13.068 19.6363 13.068H4.36361C3.76112 13.068 3.27271 12.5796 3.27271 11.9771ZM4.36361 17.4317C3.76112 17.4317 3.27271 17.9201 3.27271 18.5226C3.27271 19.1251 3.76112 19.6135 4.36361 19.6135H19.6363C20.2388 19.6135 20.7273 19.1251 20.7273 18.5226C20.7273 17.9201 20.2388 17.4317 19.6363 17.4317H4.36361Z"
        fill="#1F2024" />
</svg>
