<svg xmlns="http://www.w3.org/2000/svg" viewBox="0 0 24 24">
<path fill-rule="evenodd" clip-rule="evenodd" d="M4.08791 4.2C3.48707 4.2 3 4.60294 3 5.1C3 5.59705 3.48707 6 4.08791 6H19.9121C20.5129 6 21 5.59705 21 5.1C21 4.60294 20.5129 4.2 19.9121 4.2H4.08791ZM3 11.9C3 11.4029 3.48707 11 4.08791 11H19.9121C20.5129 11 21 11.4029 21 11.9C21 12.3971 20.5129 12.8 19.9121 12.8H4.08791C3.48707 12.8 3 12.3971 3 11.9ZM3 18.7C3 18.2029 3.48707 17.8 4.08791 17.8H19.9121C20.5129 17.8 21 18.2029 21 18.7C21 19.1971 20.5129 19.6 19.9121 19.6H4.08791C3.48707 19.6 3 19.1971 3 18.7Z" />
</svg>
