<svg width="24"
     height="24"
     viewBox="0 0 24 24"
     fill="none"
     xmlns="http://www.w3.org/2000/svg">
  <path d="M15.3805 4.33C14.5855 3.47 13.4755 3 12.2505 3C11.0255 3 9.90552 3.47 9.11052 4.325C8.31052 5.19 7.92052 6.36 8.01052 7.625C8.19052 10.12 10.0905 11.72 12.2455 11.72C14.4005 11.72 16.2955 10.125 16.4805 7.625C16.5755 6.37 16.1805 5.2 15.3755 4.33H15.3805Z"
        fill="#1F2024" />
  <path d="M19.6155 21H4.38549C4.18549 21 3.99049 20.96 3.80549 20.88C3.62549 20.8 3.46549 20.68 3.33549 20.535C3.05549 20.21 2.94049 19.77 3.02549 19.325C3.39049 17.375 4.53049 15.735 6.32049 14.585C7.91049 13.565 9.92549 13 11.9955 13C14.0655 13 16.0805 13.56 17.6705 14.585C19.4605 15.735 20.6005 17.375 20.9655 19.325C21.0505 19.77 20.9355 20.215 20.6555 20.54C20.5255 20.69 20.3655 20.805 20.1855 20.885C20.0055 20.965 19.8055 21.005 19.6055 21.005L19.6155 21Z"
        fill="#1F2024" />
</svg>
