<svg width="24"
     height="24"
     viewBox="0 0 24 24"
     fill="none"
     xmlns="http://www.w3.org/2000/svg">
  <path d="M12.2505 21C11.9505 21 11.6555 20.91 11.4055 20.74C7.72051 18.24 6.12551 16.525 5.24551 15.45C3.37551 13.165 2.47551 10.82 2.50051 8.28C2.53051 5.37 4.86551 3 7.71051 3C9.77551 3 11.2055 4.165 12.0405 5.135C12.0655 5.165 12.1005 5.19 12.1355 5.205C12.1705 5.22 12.2105 5.23 12.2505 5.23C12.2905 5.23 12.3305 5.22 12.3655 5.205C12.4005 5.19 12.4355 5.165 12.4605 5.135C13.2955 4.165 14.7255 3 16.7905 3C19.6305 3 21.9655 5.37 21.9955 8.28C22.0205 10.82 21.1205 13.165 19.2505 15.45C18.3705 16.52 16.7755 18.235 13.0905 20.74C12.8405 20.91 12.5455 21 12.2455 21H12.2505Z"
        fill="#8B8D94" />
</svg>
