<svg width="24"
     height="24"
     viewBox="0 0 24 24"
     fill="none"
     xmlns="http://www.w3.org/2000/svg">
  <path d="M12.25 21C11.95 21 11.655 20.91 11.405 20.74C7.72002 18.24 6.12502 16.525 5.24502 15.45C3.37502 13.165 2.47502 10.82 2.50002 8.28C2.53002 5.37 4.86502 3 7.71002 3C9.77502 3 11.205 4.165 12.04 5.135C12.065 5.165 12.1 5.19 12.135 5.205C12.17 5.22 12.21 5.23 12.25 5.23C12.29 5.23 12.33 5.22 12.365 5.205C12.4 5.19 12.435 5.165 12.46 5.135C13.295 4.165 14.725 3 16.79 3C19.63 3 21.965 5.37 21.995 8.28C22.02 10.82 21.12 13.165 19.25 15.45C18.37 16.52 16.775 18.235 13.09 20.74C12.84 20.91 12.545 21 12.245 21H12.25Z"
        fill="#1F2024" />
</svg>