<svg width="24"
     height="24"
     viewBox="0 0 24 24"
     fill="none"
     xmlns="http://www.w3.org/2000/svg">
  <path d="M12.25 21C11.945 21 11.655 20.91 11.405 20.74C6.97001 17.73 2.44501 13.895 2.50001 8.28C2.53001 5.37 4.86501 3 7.71001 3C9.96501 3 11.46 4.385 12.255 5.39C13.045 4.385 14.545 3 16.8 3C19.64 3 21.975 5.37 22.005 8.28C22.06 13.895 17.535 17.73 13.1 20.74C12.85 20.91 12.56 21 12.255 21H12.25ZM7.71001 4.5C5.69001 4.5 4.02501 6.205 4.00501 8.295C3.95501 13.2 8.14501 16.71 12.255 19.5C16.365 16.715 20.555 13.2 20.505 8.295C20.485 6.2 18.82 4.5 16.8 4.5C14.27 4.5 12.94 7.06 12.925 7.085C12.795 7.335 12.54 7.495 12.255 7.495C11.97 7.495 11.715 7.335 11.585 7.08C11.575 7.055 10.24 4.495 7.71501 4.495L7.71001 4.5Z"
        fill="#8B8D94" />
</svg>
