<svg xmlns="http://www.w3.org/2000/svg" viewBox="0 0 24 24">
<path d="M18.71 21.9H15.5C14.67 21.9 14 21.23 14 20.4V17.98C14 17.42 13.78 16.91 13.38 16.53C12.98 16.15 12.44 15.95 11.89 15.98C10.85 16.03 10 17.01 10 18.15V20.41C10 21.24 9.33001 21.91 8.50001 21.91H5.29001C3.69001 21.91 2.39001 20.61 2.39001 19.01V11.26C2.39001 10.43 2.74001 9.64001 3.36001 9.09001L10.63 2.62001C11.41 1.93001 12.59 1.93001 13.37 2.62001L20.64 9.08001C21.26 9.63001 21.61 10.42 21.61 11.25V19C21.61 20.6 20.31 21.9 18.71 21.9ZM15.8 20.1H18.71C19.32 20.1 19.81 19.61 19.81 19V11.25C19.81 10.94 19.68 10.64 19.44 10.43L12.17 3.97001C12.07 3.88001 11.92 3.88001 11.82 3.97001L4.55001 10.43C4.32001 10.64 4.18001 10.94 4.18001 11.25V19C4.18001 19.61 4.67001 20.1 5.28001 20.1H8.19001V18.14C8.19001 16.02 9.77001 14.28 11.79 14.18C12.83 14.13 13.85 14.49 14.61 15.22C15.36 15.94 15.8 16.94 15.8 17.98V20.1Z"/>
</svg>
