<svg width="24" height="24" viewBox="0 0 24 24" fill="none" xmlns="http://www.w3.org/2000/svg">
      <path
        d="M2.85928 10.9025L11.2093 2.9125C11.8093 2.3625 12.7093 2.3625 13.2593 2.9125L21.6093 10.9025C22.3593 11.6025 21.8593 12.8525 20.8593 12.8525V20.6525C20.8593 21.4825 20.1893 22.1525 19.3593 22.1525H14.1393C13.6843 22.1525 13.3143 21.7825 13.3143 21.3275V16.8475C13.3143 16.4625 13.0043 16.1525 12.6193 16.1525H11.7843C11.4393 16.1525 11.1593 16.4325 11.1593 16.7775V21.3275C11.1593 21.7825 10.7893 22.1525 10.3343 22.1525H5.15928C4.32928 22.1525 3.65928 21.4825 3.65928 20.6525V12.8525C2.60928 12.8525 2.10928 11.6025 2.85928 10.9025V10.9025Z"
        fill="#1F2024"
      />
    </svg>