<svg height="24"
     width="24"
     fill="#262626"
     viewBox="0 0 22 22"
     xmlns="http://www.w3.org/2000/svg">
      <path fillRule="evenodd"
            clipRule="evenodd"
            d="M14.517 21.7147C13.5702 21.7147 12.8027 20.9472 12.8027 20.0004V17.6496C12.8027 17.1759 12.614 16.7205 12.2764 16.384C11.9387 16.0473 11.4795 15.8572 10.9997 15.8572C10.5199 15.8572 10.0608 16.0472 9.72304 16.384C9.38548 16.7205 9.19677 17.1759 9.19677 17.6496V20.0004C9.19677 20.9472 8.42926 21.7147 7.48249 21.7147H2.42829C1.16593 21.7147 0.142578 20.6913 0.142578 19.429V9.67885C0.142578 9.00457 0.440298 8.36469 0.956088 7.9304L9.15946 1.02313C10.2229 0.127703 11.7765 0.127707 12.84 1.02313L21.0434 7.9304C21.5591 8.3647 21.8569 9.00457 21.8569 9.67885V19.429C21.8569 20.6913 20.8335 21.7147 19.5711 21.7147H14.517ZM19.5711 20.0004C19.8867 20.0004 20.1426 19.7446 20.1426 19.429V9.67885C20.1426 9.51028 20.0681 9.35032 19.9392 9.24174L11.7358 2.33448C11.3104 1.97631 10.689 1.97631 10.2636 2.33448L2.06024 9.24174C1.93129 9.35032 1.85686 9.51028 1.85686 9.67885V19.429C1.85686 19.7446 2.1127 20.0004 2.42829 20.0004H7.48249V17.6496C7.48249 16.7196 7.85305 15.8276 8.51266 15.17C9.17227 14.5123 10.0669 14.1429 10.9997 14.1429C11.9325 14.1429 12.8272 14.5123 13.4868 15.17C14.1464 15.8276 14.517 16.7196 14.517 17.6496V20.0004H19.5711Z" />
</svg>
