<svg width="24"
     height="24"
     viewBox="0 0 24 24"
     fill="none"
     xmlns="http://www.w3.org/2000/svg">
  <path d="M21.8351 11.24L13.1201 2.935C12.8601 2.66 12.4701 2.505 12.0451 2.5C11.6201 2.5 11.2301 2.655 11.0001 2.905L2.25505 11.24C1.93005 11.55 1.91505 12.07 2.23005 12.395C2.54005 12.725 3.06005 12.735 3.38505 12.425L3.42005 12.39V20.585C3.42005 20.985 3.58505 21.38 3.87005 21.665C4.16005 21.955 4.54005 22.11 4.95005 22.11H10.1551C10.6051 22.11 10.9751 21.745 10.9751 21.29V16.68C10.9751 16.35 11.2451 16.08 11.5751 16.08H12.5201C12.8501 16.08 13.1201 16.35 13.1201 16.68V21.29C13.1201 21.74 13.4851 22.11 13.9401 22.11H19.1451C19.5451 22.11 19.9401 21.945 20.2251 21.665C20.5151 21.375 20.6751 20.995 20.6751 20.585V12.39L20.7101 12.425C20.8701 12.575 21.0701 12.65 21.2751 12.65C21.4901 12.65 21.7051 12.565 21.8651 12.395C22.1751 12.07 22.1651 11.55 21.8401 11.24H21.8351ZM19.0301 20.475H14.7551V16.68C14.7551 15.445 13.7501 14.44 12.5151 14.44H11.5701C10.3351 14.44 9.33005 15.445 9.33005 16.68V20.475H5.05505V10.83L12.0451 4.165L19.0351 10.83V20.475H19.0301Z"
        fill="#8B8D94" />
</svg>