<svg width="32" height="32" viewBox="0 0 32 32" fill="none" xmlns="http://www.w3.org/2000/svg">
<path d="M12.25 25.6C11.09 25.6 10.15 24.66 10.15 23.5C10.15 22.34 11.09 21.4 12.25 21.4C13.41 21.4 14.35 22.34 14.35 23.5C14.35 24.66 13.41 25.6 12.25 25.6ZM12.25 22.75C11.835 22.75 11.5 23.085 11.5 23.5C11.5 23.915 11.835 24.25 12.25 24.25C12.665 24.25 13 23.915 13 23.5C13 23.085 12.665 22.75 12.25 22.75Z" fill="#1F2024"/>
<path d="M22.25 25.6C21.09 25.6 20.15 24.66 20.15 23.5C20.15 22.34 21.09 21.4 22.25 21.4C23.41 21.4 24.35 22.34 24.35 23.5C24.35 24.66 23.41 25.6 22.25 25.6ZM22.25 22.75C21.835 22.75 21.5 23.085 21.5 23.5C21.5 23.915 21.835 24.25 22.25 24.25C22.665 24.25 23 23.915 23 23.5C23 23.085 22.665 22.75 22.25 22.75Z" fill="#1F2024"/>
<path d="M23.405 17.995C23.605 17.83 23.745 17.6 23.795 17.345L25.145 10.595C25.18 10.435 25.175 10.26 25.135 10.1C25.095 9.94 25.02 9.785 24.915 9.66C24.81 9.535 24.675 9.43 24.53 9.36C24.38 9.29 24.215 9.25 24.045 9.25H10.275L9.985 7.62C9.92 7.26 9.61 7 9.245 7H6.25C5.835 7 5.5 7.335 5.5 7.75C5.5 8.165 5.835 8.5 6.25 8.5H8.62L10.76 20.63C10.825 20.99 11.135 21.25 11.5 21.25H23.5C23.915 21.25 24.25 20.915 24.25 20.5C24.25 20.085 23.915 19.75 23.5 19.75H12.13L11.865 18.25H22.695C22.955 18.25 23.21 18.16 23.41 17.995H23.405ZM11.6 16.75L10.54 10.75H23.585L22.385 16.75H11.6Z" fill="#1F2024"/>
</svg>
