<svg viewBox="0 0 12 16" fill="none"
  xmlns="http://www.w3.org/2000/svg">
  <path d="M5.99806 0.108154C2.91931 0.108154 0.414307 2.5119 0.414307 5.4669C0.414307 7.0644 1.18306 8.0619 2.07556 9.2169C3.05431 10.4844 4.26931 12.0594 5.00431 15.1232C5.01556 15.1644 5.03056 15.2057 5.04931 15.2432C5.14306 15.4307 5.26306 15.6444 5.48806 15.7569C5.58931 15.8057 5.75431 15.8919 5.99806 15.8919C6.22306 15.8919 6.44806 15.7907 6.51181 15.7569C6.72556 15.6482 6.95056 15.3782 6.99931 15.0969C7.73806 12.0519 8.94931 10.4807 9.92431 9.22065C10.8168 8.06565 11.5856 7.06815 11.5856 5.47065C11.5818 2.5119 9.07681 0.108154 5.99806 0.108154ZM5.99806 7.5669C4.98556 7.5669 4.12306 6.7419 4.12306 5.6919C4.12306 4.6419 4.94806 3.8169 5.99806 3.8169C7.04806 3.8169 7.87306 4.6419 7.87306 5.6919C7.87306 6.7419 7.01056 7.5669 5.99806 7.5669Z" />
</svg>
