<svg width="24"
     height="24"
     viewBox="0 0 24 24"
     fill="none"
     xmlns="http://www.w3.org/2000/svg">
  <path d="M14.98 11.99C16.2 11.08 17 9.64 17 8C17 5.24 14.76 3 12 3C9.24001 3 7.00001 5.24 7.00001 8C7.00001 9.64 7.80002 11.08 9.02002 11.99C5.69002 13.11 3.26001 16.07 3.11001 19.63C3.10001 19.95 3.22001 20.27 3.44001 20.51C3.67001 20.75 4.00001 20.89 4.34001 20.89H19.8C20.1 20.89 20.39 20.77 20.6 20.55C20.81 20.34 20.92 20.05 20.91 19.76C20.81 16.12 18.38 13.11 15 11.98L14.98 11.99ZM12 4.8C13.76 4.8 15.2 6.24 15.2 8C15.2 9.76 13.76 11.2 12 11.2C10.24 11.2 8.80001 9.76 8.80001 8C8.80001 6.24 10.24 4.8 12 4.8ZM4.96001 19.1C5.42001 15.8 8.40001 13.3 12 13.3C15.6 13.3 18.56 15.84 19.04 19.1H4.96001Z"
        fill="#8B8D94" />
</svg>