<svg width="20"
     height="20"
     viewBox="0 0 20 20"
     fill="none"
     xmlns="http://www.w3.org/2000/svg">
  <path d="M18.3086 15.2917L11.6502 2.92915C10.9419 1.61248 9.05857 1.61248 8.35024 2.92915L1.69191 15.2917C1.53774 15.575 1.45857 15.8958 1.46691 16.2208C1.47524 16.5458 1.56691 16.8625 1.73357 17.1417C1.90024 17.4208 2.13357 17.65 2.41691 17.8125C2.70024 17.9708 3.01691 18.0583 3.34191 18.0583H16.6586C16.9836 18.0583 17.3002 17.975 17.5836 17.8125C17.8669 17.6542 18.1002 17.4208 18.2669 17.1417C18.4336 16.8625 18.5252 16.5458 18.5336 16.2208C18.5419 15.8958 18.4627 15.575 18.3086 15.2917ZM9.15024 7.65415C9.14607 7.53748 9.16274 7.42498 9.20441 7.31665C9.24191 7.21248 9.30441 7.11665 9.38357 7.03332C9.45857 6.95415 9.55024 6.89165 9.6544 6.84165C9.76274 6.79582 9.87107 6.77082 9.98357 6.77082C10.1169 6.77915 10.2169 6.79165 10.3211 6.83748C10.4294 6.88332 10.5252 6.94582 10.6044 7.02915C10.6836 7.11248 10.7461 7.20832 10.7877 7.31665C10.8294 7.42498 10.8461 7.54165 10.8419 7.65832L10.6169 12.4208C10.6002 12.7542 10.3252 13.0167 9.99191 13.0167C9.65857 13.0167 9.38357 12.7542 9.3669 12.4208L9.14191 7.65415H9.15024ZM10.6419 15.3708C10.4836 15.5292 10.2752 15.6167 10.0544 15.6167C9.88774 15.6167 9.72941 15.5667 9.59191 15.475C9.45441 15.3833 9.34607 15.2542 9.28357 15.1C9.22107 14.9458 9.20441 14.7792 9.23774 14.6167C9.27107 14.4542 9.35024 14.3083 9.46691 14.1917C9.58357 14.075 9.73357 13.9958 9.8919 13.9625C10.0544 13.9292 10.2211 13.9458 10.3752 14.0083C10.5294 14.0708 10.6586 14.1792 10.7502 14.3167C10.8419 14.4542 10.8919 14.6167 10.8919 14.7792C10.8919 15 10.8044 15.2125 10.6461 15.3667L10.6419 15.3708Z"
        fill="#CF1124" />
</svg>
