<svg viewBox="0 0 16 16" fill="none"
  xmlns="http://www.w3.org/2000/svg">
  <path fill-rule="evenodd" clip-rule="evenodd" d="M1.42987 13.3932C2.00372 14.3119 2.88116 14.7394 4.26874 14.7769H11.8099C12.5488 14.7394 13.2649 14.6569 13.9175 14.1207C14.7312 13.3857 15.1437 12.1181 15.1437 10.3519C15.1437 7.5881 13.7712 4.97061 11.4725 3.35068L11.4349 3.3244L11.675 3.08435C12.0049 2.69443 12.3688 1.98187 12.1062 1.28442C11.855 0.579376 11.2062 0.223145 10.5311 0.223145H5.46863C4.78253 0.223145 4.16748 0.658112 3.97247 1.28442C3.73993 1.86194 3.88623 2.5744 4.32861 3.01688L4.66992 3.32816L4.63239 3.35443C2.08997 5.17688 0.856201 7.45316 0.856201 10.3144C0.856201 11.8519 1.02869 12.7706 1.42987 13.3932ZM10.6679 8.22366H11.0092C11.2604 8.22366 11.4668 8.42993 11.4668 8.68115C11.4668 8.93246 11.2643 9.13864 11.0092 9.13864H10.4092L9.91791 10.8862C9.84302 11.1337 9.62549 11.3024 9.37793 11.3099H9.35925C9.1192 11.3099 8.90552 11.1599 8.81927 10.9349L7.97919 8.71494L7.22168 10.9161C7.14679 11.1487 6.91791 11.3062 6.67053 11.3062C6.41913 11.3024 6.20178 11.1412 6.12671 10.9012L5.56055 9.13864H4.9942C4.73914 9.13864 4.53296 8.93246 4.53296 8.68115C4.53296 8.42993 4.73914 8.22366 4.9942 8.22366H5.26428L5.03174 7.50369C4.953 7.26364 5.08795 7.00491 5.328 6.92618C5.56787 6.84744 5.82678 6.98239 5.90552 7.22244L6.68921 9.65244L7.42419 7.52246C7.51044 7.28616 7.72797 7.13245 7.97168 7.13245C8.21539 7.1362 8.43292 7.28992 8.51166 7.52246L9.31421 9.64117L9.98914 7.23746C10.0567 6.99365 10.3118 6.8512 10.5555 6.91867C10.7992 6.98615 10.9417 7.24121 10.8743 7.48492L10.6679 8.22366Z" />
</svg>
