<svg width="24" height="24" viewBox="0 0 24 24" fill="none" xmlns="http://www.w3.org/2000/svg">
<path d="M12 2C6.48 2 2 6.48 2 12C2 17.52 6.48 22 12 22C17.52 22 22 17.52 22 12C22 6.48 17.52 2 12 2ZM12 20.2C7.48 20.2 3.8 16.52 3.8 12C3.8 7.48 7.48 3.8 12 3.8C16.52 3.8 20.2 7.48 20.2 12C20.2 16.52 16.52 20.2 12 20.2ZM12.9 11.44V7C12.9 6.5 12.5 6.1 12 6.1C11.5 6.1 11.1 6.5 11.1 7V11.8C11.1 12.03 11.19 12.25 11.35 12.42L14.36 15.61C14.54 15.8 14.78 15.89 15.01 15.89C15.23 15.89 15.45 15.81 15.63 15.64C15.99 15.3 16.01 14.73 15.67 14.37L12.9 11.44V11.44Z" fill="#C3C5C9"/>
</svg>
