<svg width="24"
     height="24"
     viewBox="0 0 24 24"
     fill="none"
     xmlns="http://www.w3.org/2000/svg">
  <path d="M20.6483 19.4775L16.5333 15.3625C16.7283 15.1375 16.9183 14.9025 17.0883 14.6575C17.9933 13.3025 18.4733 11.6925 18.4733 10.0025C18.4733 7.80247 17.6183 5.70247 16.0383 4.06747C14.4233 2.51247 12.3283 1.65747 10.1283 1.65747C8.52831 1.65747 6.92831 2.12747 5.47331 3.04247C4.13331 3.93747 3.07831 5.22747 2.41831 6.78747C1.77331 8.35747 1.61831 10.0325 1.95831 11.6275C2.31831 13.3175 3.12331 14.7925 4.25331 15.8725C5.39331 17.0075 6.89831 17.8275 8.49831 18.1675C9.04831 18.2825 9.60331 18.3425 10.1633 18.3425C11.2333 18.3425 12.3133 18.1275 13.3533 17.7025C13.8983 17.4725 14.4233 17.1775 14.9183 16.8325L19.1083 21.0225C19.3233 21.2375 19.5983 21.3425 19.8783 21.3425C20.1583 21.3425 20.4383 21.2375 20.6483 21.0225C21.0733 20.5975 21.0733 19.9075 20.6483 19.4775ZM12.5133 15.6875C11.3483 16.1625 10.1183 16.2825 8.95331 16.0325C7.76331 15.7775 6.63831 15.1725 5.77831 14.3075C4.94331 13.5125 4.36331 12.4275 4.09331 11.1675C3.84331 10.0025 3.96331 8.77247 4.43331 7.62247C4.92331 6.46747 5.69831 5.51247 6.65831 4.87247C7.74331 4.19747 8.94331 3.83747 10.1283 3.83747C11.7633 3.83747 13.3233 4.47247 14.4933 5.60247C15.6483 6.80247 16.2883 8.36247 16.2883 9.99747C16.2883 11.2525 15.9383 12.4425 15.2833 13.4225C14.5883 14.4225 13.6033 15.2275 12.5183 15.6875H12.5133Z"
        fill="#1F2024" />
</svg>