<svg width="24"
     height="24"
     viewBox="0 0 24 24"
     fill="none"
     xmlns="http://www.w3.org/2000/svg">
  <path d="M20.55 20L16.05 15.45C16.3 15.15 16.55 14.9 16.75 14.55C17.65 13.2 18.1 11.65 18.1 10.05C18.1 7.9 17.25 5.85 15.75 4.35C14.25 2.85 12.2 2 10.05 2C8.45 2 6.9 2.45 5.55 3.35C4.2 4.25 3.2 5.5 2.6 6.95C2 8.45 1.85 10.05 2.15 11.6C2.45 13.15 3.25 14.6 4.35 15.75C5.5 16.9 6.9 17.65 8.5 17.95C9 18.05 9.55 18.1 10.1 18.1C11.15 18.1 12.2 17.9 13.2 17.5C13.8 17.25 14.4 16.9 14.95 16.5L19.5 21.1C19.65 21.25 19.85 21.35 20.1 21.35C20.3 21.35 20.5 21.25 20.7 21.1C20.9 20.85 20.9 20.3 20.55 20ZM12.5 16.05C11.3 16.55 10.05 16.65 8.8 16.4C7.55 16.15 6.4 15.55 5.5 14.65C4.6 13.75 4 12.6 3.75 11.35C3.5 10.1 3.65 8.8 4.1 7.65C4.6 6.45 5.4 5.45 6.45 4.75C7.5 4.05 8.75 3.65 10 3.65C11.7 3.65 13.35 4.3 14.55 5.55C15.75 6.75 16.45 8.4 16.45 10.1C16.45 11.4 16.05 12.6 15.35 13.65C14.7 14.75 13.7 15.55 12.5 16.05Z"
        fill="#8B8D94" />
</svg>