<svg width="165" height="42" viewBox="0 0 165 42" fill="none" xmlns="http://www.w3.org/2000/svg">
<path d="M10.642 8.84403C7.30825 12.3816 3.56878 16.2354 0.5 19.6347L5.45651 24.6249L14.5614 15.0101C22.5409 21.9569 15.3695 15.7381 24.4712 23.6269C28.4429 18.7585 25.1779 22.7836 28.9271 18.1393C19.4002 9.90465 26.8562 16.3507 18.4318 9.06801V1.72271H10.642V8.84403ZM35.1792 41.9934H5.04429V27.4807H12.4905V35.4617C23.0742 35.4189 38.886 35.4617 38.886 35.4617V38.2582C38.886 39.2488 38.4951 40.1989 37.7993 40.8994C37.1036 41.5999 36.1599 41.9934 35.176 41.9934H35.1792ZM30.6906 30.1586V0.816895H38.1204V30.1586H30.6906Z" fill="#12B564"/>
<path d="M45.6386 25.5307L40.6821 20.5438C46.8295 13.989 46.957 13.8803 50.3203 10.2867C50.3203 6.75901 50.3203 6.75901 50.3203 1.72271H58.0675V10.3856L68.0656 19.0451L63.6063 24.4899L54.2397 16.4528C45.6386 25.5307 52.7151 18.0734 45.6386 25.5307ZM75.6655 42H45.547V27.9352H52.9801V35.4617H79.3756V38.2582C79.3756 39.2488 78.9847 40.1989 78.2889 40.8994C77.5932 41.5999 76.6495 41.9934 75.6655 41.9934V42ZM64.542 14.7433V7.70765H71.0853V0.816895H78.61V30.1586H71.0853V14.7367L64.542 14.7433Z" fill="#12B564"/>
<path d="M109.923 3.71877V10.5239H83.4815V3.71877H93.2964V0H101.001V3.71877H109.923ZM109.877 26.3476C109.877 36.687 106.769 40.633 97.1733 40.633C87.5776 40.633 84.4728 36.6804 84.4728 26.3476C84.4728 16.0147 87.5809 12.0621 97.1733 12.0621C106.766 12.0621 109.877 16.0082 109.877 26.3344V26.3476ZM102.804 26.3476C102.804 19.9542 101.59 18.1854 97.1733 18.1854C92.7566 18.1854 91.5886 19.9542 91.5886 26.3476C91.5886 32.741 92.7598 34.5098 97.1733 34.5098C101.587 34.5098 102.804 32.741 102.804 26.3344V26.3476ZM123.69 21.8119H119.653V38.077C119.653 39.0665 119.264 40.0159 118.571 40.7169C117.877 41.4178 116.935 41.8129 115.952 41.8155H112.026V0.816877H119.639V14.5556H123.677L123.69 21.8119Z" fill="#12B564"/>
<path d="M127.161 20.4516C127.161 5.34924 130.855 0.998058 140.041 0.998058C149.228 0.998058 152.879 5.34924 152.879 20.4516C152.879 35.5539 149.231 39.9084 140.041 39.9084C130.851 39.9084 127.161 35.5572 127.161 20.4516ZM145.266 20.4516C145.266 10.2933 144.285 8.02715 140.032 8.02715C135.778 8.02715 134.764 10.2933 134.764 20.4516C134.764 30.6098 135.798 32.8793 140.032 32.8793C144.265 32.8793 145.266 30.6164 145.266 20.4516ZM157.024 0.816895H164.5V38.077C164.5 38.5675 164.405 39.0533 164.219 39.5067C164.033 39.96 163.76 40.372 163.416 40.7192C163.072 41.0664 162.663 41.3419 162.213 41.53C161.763 41.7181 161.28 41.8151 160.793 41.8156H157.024V0.816895Z" fill="#12B564"/>
</svg>
