<svg width="85" height="22" viewBox="0 0 85 22" fill="none" xmlns="http://www.w3.org/2000/svg">
<path fill-rule="evenodd" clip-rule="evenodd" d="M56.6513 2.1143V5.62113H42.9628V2.1143H48.0452V0.199951H52.0264V2.1143H56.6513ZM56.6344 13.7529C56.6344 19.0724 55.0249 21.1054 50.0612 21.1054C45.0974 21.1054 43.488 19.0724 43.488 13.7529C43.488 8.43336 45.0974 6.40042 50.0612 6.40042C55.0249 6.40042 56.6344 8.43336 56.6344 13.7529ZM52.9751 13.7529C52.9751 10.4663 52.3482 9.55148 50.0612 9.55148C47.7741 9.55148 47.1642 10.4663 47.1642 13.7529C47.1642 17.0395 47.7741 17.9543 50.0612 17.9543C52.3482 17.9543 52.9751 17.0395 52.9751 13.7529ZM63.7835 11.415H61.6998V19.784C61.6998 20.8512 60.8358 21.6983 59.7854 21.6983H57.7694V0.623481H61.7167V7.68795H63.8005V11.415H63.7835ZM3.44382 6.63999C4.05576 5.99932 4.66546 5.36097 5.25177 4.74018V1.09783H9.28377V4.87571C11.2567 6.56571 11.5521 6.81631 11.7358 6.97216L11.7359 6.97229L11.7359 6.97231L11.736 6.97232L11.736 6.97234C11.9591 7.1616 12.0182 7.21177 14.7219 9.53454C14.2369 10.1343 13.9795 10.4532 13.8335 10.6341L13.8334 10.6342C13.6929 10.8083 13.6555 10.8546 13.6177 10.9006L13.5716 10.9565C13.482 11.0649 13.2781 11.3116 12.4179 12.3637C9.83616 10.1349 9.78457 10.09 9.58406 9.91564C9.4188 9.77191 9.15238 9.5402 7.28471 7.92512C6.41091 8.83533 5.91269 9.35431 5.41472 9.87353C4.75413 10.5623 4.09399 11.2515 2.55812 12.855L0 10.2969C1.05215 9.144 2.25221 7.88757 3.44382 6.63999ZM2.35482 21.8H17.9576C19.008 21.8 19.872 20.936 19.872 19.8687V18.4287C19.872 18.4287 11.6894 18.4117 6.20047 18.4287V14.3289H2.35482V21.8ZM15.6198 0.623474V15.7181H19.4824V0.623474H15.6198ZM20.8037 10.7712L23.3618 13.3294C25.1046 11.5144 25.195 11.4202 25.2863 11.3268L25.3016 11.3113C25.4032 11.2075 25.6064 11.0001 27.8512 8.67054L27.852 8.67118L27.8522 8.67132C29.8334 10.3647 29.8338 10.365 32.6964 12.8042C33.8497 11.405 34.1837 10.9991 34.3508 10.796L34.4575 10.6665C34.5497 10.5545 34.642 10.4427 35.0004 10.0089C33.6599 8.8612 32.8767 8.18624 32.1007 7.51744L32.1003 7.51712C31.4446 6.95201 30.7939 6.39124 29.8164 5.55336V1.09783H25.8014V5.50253C25.0655 6.28124 24.6279 6.74061 24.1291 7.2643C23.4449 7.98247 22.6456 8.82163 20.8037 10.7712ZM23.311 21.8H38.9138C39.9811 21.8 40.8451 20.936 40.8282 19.8856V18.4456H27.1567V14.5661H23.311V21.8ZM33.1708 4.16418V7.77265C33.9839 7.77265 35.2715 7.77265 36.559 7.78959V15.7181H40.4555V0.623474H36.559V4.16418H33.1708ZM72.2541 0.70818C67.4936 0.70818 65.5793 2.96136 65.5793 10.7204C65.5793 18.4795 67.5106 20.7327 72.2541 20.7327C76.9976 20.7327 78.8951 18.4964 78.8951 10.7204C78.8951 2.94442 77.0146 0.70818 72.2541 0.70818ZM72.2541 4.33359C74.4565 4.33359 74.9647 5.50253 74.9647 10.7204C74.9647 15.9383 74.4395 17.1072 72.2541 17.1072C70.0687 17.1072 69.5266 15.9383 69.5266 10.7204C69.5266 5.50253 70.0518 4.33359 72.2541 4.33359ZM84.9261 0.623474H81.0635V21.6983H83.0118C84.0621 21.6983 84.9261 20.8512 84.9261 19.784V0.623474Z" fill="black"/>
</svg>
