<svg width="17" height="17" viewBox="0 0 17 17" fill="none" xmlns="http://www.w3.org/2000/svg">
<path d="M8.79163 0.666687C4.31246 0.666687 0.666626 4.31252 0.666626 8.79169C0.666626 13.2709 4.31246 16.9167 8.79163 16.9167C13.2708 16.9167 16.9166 13.2709 16.9166 8.79169C16.9166 4.31252 13.2708 0.666687 8.79163 0.666687ZM13.0208 6.06669L7.77079 12.3167C7.71246 12.3834 7.64163 12.4417 7.56246 12.4792C7.48329 12.5167 7.39163 12.5375 7.30413 12.5375H7.29163C7.20413 12.5375 7.11663 12.5209 7.03746 12.4834C6.95829 12.4459 6.88746 12.3959 6.82913 12.3292L4.57913 9.82919C4.52079 9.77085 4.47913 9.69585 4.44996 9.62085C4.42079 9.54169 4.40829 9.45835 4.41246 9.37502C4.41246 9.29169 4.43746 9.20835 4.47079 9.13335C4.50413 9.05835 4.55829 8.99169 4.61663 8.93335C4.67913 8.87919 4.74996 8.83335 4.82913 8.80836C4.90829 8.77919 4.99163 8.77085 5.07496 8.77502C5.15829 8.77919 5.24163 8.80419 5.31246 8.83752C5.38746 8.87502 5.45413 8.92502 5.50829 8.99169L7.27913 10.9584L12.0666 5.25835C12.175 5.13335 12.325 5.05835 12.4875 5.04585C12.65 5.03335 12.8125 5.08335 12.9375 5.19169C13.0625 5.29585 13.1416 5.45002 13.1583 5.61252C13.175 5.77502 13.125 5.93752 13.0208 6.06669Z" fill="#0BB25F"/>
</svg>
