<svg width="24"
     height="24"
     viewBox="0 0 24 24"
     fill="none"
     xmlns="http://www.w3.org/2000/svg">
  <path d="M12.025 11.75C9.59502 11.75 7.70002 9.925 7.51502 7.405C7.41502 6.06 7.83502 4.82 8.68503 3.905C9.53003 3 10.715 2.5 12.025 2.5C13.335 2.5 14.51 3 15.355 3.915C16.21 4.84 16.63 6.08 16.53 7.41C16.345 9.925 14.445 11.75 12.02 11.75H12.025ZM12.025 4C11.135 4 10.34 4.33 9.78503 4.925C9.22003 5.53 8.94502 6.375 9.01503 7.295C9.15503 9.235 10.64 10.245 12.03 10.245C13.42 10.245 14.9 9.23 15.045 7.295C15.11 6.385 14.835 5.545 14.265 4.93C13.705 4.325 12.91 3.995 12.03 3.995L12.025 4Z"
        fill="#8B8D94" />
  <path d="M19.925 21.25H3.97502C3.53002 21.25 3.13502 21.07 2.86002 20.735C2.56002 20.375 2.44002 19.89 2.53002 19.395C3.38502 14.655 8.01502 12.5 11.95 12.5C15.885 12.5 20.515 14.66 21.37 19.395C21.46 19.89 21.34 20.375 21.04 20.735C20.765 21.065 20.365 21.25 19.925 21.25ZM4.00502 19.75H19.9C19.9 19.75 19.905 19.7 19.9 19.665C19.2 15.775 15.29 14 11.955 14C8.62002 14 4.71002 15.77 4.01002 19.665C4.00502 19.7 4.01002 19.73 4.01002 19.75H4.00502Z"
        fill="#8B8D94" />
</svg>