<svg width="24"
     height="24"
     viewBox="0 0 24 24"
     fill="none"
     xmlns="http://www.w3.org/2000/svg">
  <path fillRule="evenodd"
        clipRule="evenodd"
        d="M12.25 3C13.475 3 14.585 3.47 15.38 4.33H15.375C16.18 5.2 16.575 6.37 16.48 7.625C16.295 10.125 14.4 11.72 12.245 11.72C10.09 11.72 8.19003 10.12 8.01003 7.625C7.92003 6.36 8.31003 5.19 9.11003 4.325C9.90503 3.47 11.025 3 12.25 3ZM4.385 21H19.615L19.605 21.005C19.805 21.005 20.005 20.965 20.185 20.885C20.365 20.805 20.525 20.69 20.655 20.54C20.935 20.215 21.05 19.77 20.965 19.325C20.6 17.375 19.46 15.735 17.67 14.585C16.08 13.56 14.065 13 11.995 13C9.925 13 7.91 13.565 6.32 14.585C4.53 15.735 3.39 17.375 3.025 19.325C2.94 19.77 3.055 20.21 3.335 20.535C3.465 20.68 3.625 20.8 3.805 20.88C3.99 20.96 4.185 21 4.385 21Z"
        fill="#1F2024" />
</svg>