<svg width="16" height="16" viewBox="0 0 16 16" fill="none" xmlns="http://www.w3.org/2000/svg">
<path d="M13.5264 12.8201H2.47305C2.13971 12.8201 1.87305 13.0867 1.87305 13.4201C1.87305 13.7534 2.13971 14.0201 2.47305 14.0201H13.5264C13.8597 14.0201 14.1264 13.7534 14.1264 13.4201C14.1264 13.0867 13.8597 12.8201 13.5264 12.8201ZM3.71971 11.8601L6.21305 11.4801C6.29971 11.4667 6.37971 11.4267 6.43971 11.3667L13.0064 4.80673C13.173 4.64006 13.1797 4.38006 13.0197 4.22673L10.9064 2.11339C10.753 1.96006 10.493 1.96673 10.3264 2.12673L3.77305 8.68006C3.71305 8.74006 3.67305 8.82006 3.65971 8.90673L3.27971 11.4001C3.23971 11.6667 3.46638 11.8934 3.73305 11.8534L3.71971 11.8601Z" fill="#8B8D94"/>
</svg>
